<svg xmlns="http://www.w3.org/2000/svg" width="279" height="582.596" viewBox="0 0 279 582.596"><g transform="translate(0 0.596)"><g transform="translate(-22 -28)"><path d="M236.7,42.658c3.6-1.555,8.167.707,5.976,5.2C240.331,52.672,232.6,52.327,228.249,52c.438,0,2.08-4.44,2.6-5.1A14.81,14.81,0,0,1,236.7,42.658Zm-45.073,87.568C190.335,131.22,191.523,130.32,191.629,130.226Zm47.951-64.5a4.19,4.19,0,0,1,.151,6.314c-2.159,2.153-5.881,1.878-8.65,1.513-1.253-.165-7.941-1.046-6.292-2.052a5.576,5.576,0,0,0-.668.274q-.263.788-.547,1.569c.038.025.07.051.111.076-.044-.022-.075-.045-.114-.068a60.907,60.907,0,0,1-7.721,14.666,14.647,14.647,0,0,1,3.525-.739c3.528-.257,10.757,2.822,6.592,7.239-3.992,4.234-9.592-.821-13.823-1.7a198.536,198.536,0,0,1-14.352,15.8,1.135,1.135,0,0,1,.667.611c1.968-.864,4.04-2.139,5.834-2.42,2.59-.4,7.859-.458,9.675,1.912,2.233,2.916-.439,5.051-3.28,5.44-4.12.565-9.355-1.686-13.21-3.223a1.3,1.3,0,0,1-1.21-.471l-.253-.1c-5.12,5.02-10.417,9.856-15.676,14.582h.162a13.664,13.664,0,0,1,4.317-1.686c3.55-.664,7.674-.454,10.385,2.205s3.473,7.073.394,9.729c-6.165,5.317-14.131-7.948-17.062-8.637-5.342,4.75-10.958,9.155-16.654,13.462a9.8,9.8,0,0,1,1.931-.287c5.374-.229,17.58,6.914,10.681,12.96-6.013,5.269-12.065-5.787-16.474-9.773-5.365,4.011-10.756,7.991-16.01,12.144a14.767,14.767,0,0,1,8.317.485c2.99,1.068,7.771,3.593,5.636,7.555-2.172,4.029-7.958,1.844-10.954.374-1.635-.8-4.859-3.39-7.749-4.56a100.3,100.3,0,0,0-21.554,24.413,87.117,87.117,0,0,0-8.538,18.826c-1.343,4.195-3.925,11.225-3.776,16.784-1.517-11.191,2.99-24.3,7.609-33.994a83.4,83.4,0,0,1,17.288-23.47c-1.395-5.02-14.961-12.86-6.383-17.011,4.554-2.194,8.875,2.063,9.617,6.372.509,2.962-.7,6.587-1.923,9.372q3.29-3.129,6.8-6.035c3.224-2.678,6.518-5.269,9.84-7.824-4.979-5.144-9.2-19.329-2.056-21.242,10.545-2.816,4.548,15.923,3.636,19.446a.569.569,0,0,1-.474-.207c.041.329.091.682.154,1.038,6.356-4.864,12.8-9.621,19.047-14.614a27.063,27.063,0,0,1-1.921-2.806,30.371,30.371,0,0,1-3.721-6.01c-1.5-3.423-2.832-8.829,1.712-10.561,4.942-1.888,6.918,4.251,6.761,7.843-.108,2.485-.916,4.808-1.4,7.224-.151.753.1,4.2-.87,2.671a7.151,7.151,0,0,1-.033,1.216q1.684-1.352,3.345-2.732a1.3,1.3,0,0,1-.071-.418,1.255,1.255,0,0,1,1.856-1.076q2.194-1.86,4.342-3.781c3.026-2.722,6.1-5.523,9.153-8.389-.6-.567-.311-1.294-.868-1.892s-1.7-.969-2.357-1.531a16.535,16.535,0,0,1-3.942-5.368c-1.551-3.224-3.423-9.916,1.674-11.15,5.253-1.274,7.544,5.193,7.667,9.169a100.43,100.43,0,0,1-1.5,10.135c5.654-5.326,11.231-10.868,16.319-16.536-1.447-.088-5.4-3.238-6.183-4.083-1.921-2.06-4.91-6.546-1.24-8.648,3.263-1.863,7,1.275,8.2,4.2a39.681,39.681,0,0,1,.705,6.861c2.109-2.406,4.127-4.832,6.015-7.272q1.888-2.434,3.559-5a2.353,2.353,0,0,1-.661-.715c-5.216-1.158-11.5-9.638-5.164-12.147,3.015-1.193,6.06,1.75,7.381,4.1a29.943,29.943,0,0,1,.917,4.709,97.178,97.178,0,0,0,7.874-18.019,1.142,1.142,0,0,1-.842-1.1c-2.478-1.575-4.433-2.881-6.07-5.748-1.017-1.781-2.8-5.821.5-6.608,4.3-1.024,6.625,5.523,6.8,8.7.021.368-.037,1.434-.1,2.41a1.44,1.44,0,0,1,.441.031c1.181-3.878,2.168-7.817,3-11.771-2.274-.857-2.037-12.906-.407-14.539,3.645-3.656,5.781,2.009,5.442,4.928a19.272,19.272,0,0,1-4.174,9.189c-.218.285-.159.273-.19-.141a.823.823,0,0,1-.224.451,51.806,51.806,0,0,1-.084,5.3,121.5,121.5,0,0,1-2.318,13.7q-.375,1.643-.83,3.255a27.043,27.043,0,0,1,5.526-3.12C233.166,64.7,237.153,63.679,239.58,65.724ZM103,218.485a8.46,8.46,0,0,0,1,4A21.844,21.844,0,0,1,103,218.485Z" transform="translate(-6.394 9.234) rotate(-3)" fill="#c1dee2" fill-rule="evenodd" opacity="0.2"/><g transform="translate(22 79)" opacity="0.5"><path d="M178.223,111.445c4.2-5.992,12-21.21,17.915-23.351,3.81-1.379,2.7,12.886,2.746,15.606a228.069,228.069,0,0,1-2.106,31.416c-2.28,18.821-9.733,35.581-19.956,51.6-5.26,8.242-11.431,16.585-19.977,21.727-3.933,2.369-8.666,2.765-12.551,4.806-4.525,2.375-2.061.455-4.1,5.169-2.831,6.546-3.737,14.991-5.047,21.975-6.015,32.062-20.579,201.553-18.054,234.166.224,2.891-3.806,3.582-4.008.053-1.069-18.711,8.185-148.289,12.855-190.664s9.394-79.812,14.131-94.473c5.748-17.787,16.128-39.176,24.769-55.763A197.32,197.32,0,0,1,178.223,111.445Z" fill="#69a1ac" fill-rule="evenodd"/><path d="M209.414,319.278c10.935-8.028,22.772,7.123,12.876,15.152-5.47,4.438-11.189,2.86-14.408-.839-2.09,2.548-4.046,5.212-5.926,7.461-5.727,6.857-11.139,13.876-16.312,21.059-10.746,14.924-19.955,30.69-29.584,46.167-9.5,15.276-18.928,30.63-27.541,46.293C121.223,467.841,111.5,483.452,109,498c3.79-30.854,18.172-60.51,35.3-87.709,16.987-26.977,36.481-56.438,62.783-77.727A9.316,9.316,0,0,1,209.414,319.278Z" fill="#c1dee2" fill-rule="evenodd"/><path d="M1.913,244.031c6.119,1.2,16.118,15.039,21.162,20.313a197.526,197.526,0,0,1,16.56,19.948,337.391,337.391,0,0,1,29.3,47.788,444.187,444.187,0,0,1,32.6,84.838,349.849,349.849,0,0,1,9.891,55.647c.353,3.524,4.047,30.688-1.276,31.42-4.787.659-3.308-20.626-3.539-23.522C104,447.8,96.177,416.015,85.3,385.226c-2.369-6.707-4.571-14.922-8.36-20.958-2.729-4.347-.02-2.831-4.815-4.476-4.118-1.414-8.81-1.068-13.027-2.8-9.161-3.756-16.5-11.049-22.925-18.385-12.5-14.257-22.4-29.68-27.558-47.948A230.816,230.816,0,0,1,1.658,259.9C1.281,257.2-2.028,243.26,1.913,244.031Z" fill="#69a1ac" fill-rule="evenodd"/><path d="M26.061,13.716C49.111,53.69,68.053,97.6,80.283,142.076c7.41,26.947,12.593,54.6,17.742,82.05,7.972,42.506,15.513,85.008,17.658,128.269,2.158,43.511,6.425,93.7-7.822,135.605,7.117-42.548.341-87.838-.859-130.65-.573-20.438-2.234-40.676-4.414-60.995-2.115-19.71-5.57-39.326-8.787-58.881q-2.351-14.286-4.889-28.537c-.5-2.836-.712-11.25-2.51-13.187s-11.047-2.745-13.947-4.176a74.847,74.847,0,0,1-16.194-11.3c-9.319-8.291-17.426-19.124-23.825-29.8C17.631,125.764,11.712,95.61,12.011,66.994,12.068,61.438,21,1.61,17.415.786q.324-.38.613-.786Q22.1,6.823,26.061,13.716Z" fill="#89c5cc" fill-rule="evenodd"/><path d="M274.846,157.887c.356-.513,2.671-4.08,1.505-3.852,2.373-.465-3.264,3.934,2.649,1.235-2.808,2.652-1.187,6.1-1.15,9.665a86.582,86.582,0,0,1-2,17.211,118.032,118.032,0,0,1-8.023,26.013c-8.127,18.167-21.927,35.655-38.31,47.013-8.088,5.607-16.014,7.517-25.238,10.1-5.827,1.631-6.289,4.645-9.382,10.3-6.438,11.776-12.762,23.509-18.441,35.682-6.78,14.537-13.362,29.089-19.571,43.881C135.969,404.957,118.945,456.578,110,510c-.219-31.481,7.064-63.9,16.25-93.912,6.692-21.862,15.4-42.937,24.695-63.8,2.251-5.053,5.663-11.555,6.62-17.134.669-3.91-1.378-7.669-2.315-11.788-3.653-16.037-3.392-34-.184-50.127,3.538-17.779,13.768-26.031,31.074-28.549,6.329-.922,14.374-.584,20.177-3.283,6.323-2.938,8.931-12.6,12.527-18.8a255.641,255.641,0,0,1,34.306-46.665,111.294,111.294,0,0,1,11.733-10.8C267.513,163.053,273.057,160.47,274.846,157.887Z" fill="#89c5cc" fill-rule="evenodd"/><path d="M80.791,476h61.418a5,5,0,0,1,5,5,4.938,4.938,0,0,1-.054.729l-4.747,32.189A20,20,0,0,1,122.622,531H100.378a20,20,0,0,1-19.786-17.082l-4.747-32.189a5,5,0,0,1,4.217-5.676A5.086,5.086,0,0,1,80.791,476Z" fill="#c1dee2" fill-rule="evenodd"/></g></g></g></svg>